<?xml version="1.0" encoding="utf-8"?>
<!-- Generator: Adobe Illustrator 16.0.0, SVG Export Plug-In . SVG Version: 6.00 Build 0)  -->
<!DOCTYPE svg PUBLIC "-//W3C//DTD SVG 1.1//EN" "http://www.w3.org/Graphics/SVG/1.1/DTD/svg11.dtd">
<svg version="1.1" id="Layer_1" xmlns="http://www.w3.org/2000/svg" xmlns:xlink="http://www.w3.org/1999/xlink" x="0px" y="0px"
	 width="33.5px" height="32.832px" viewBox="0 0 33.5 32.832" enable-background="new 0 0 33.5 32.832" xml:space="preserve">
<title>search icon</title>
<g>
	<title>Layer 1</title>
	<path id="path12423" fill="#CAC892" d="M5.462,4.943C1.135,9.27,1.125,16.359,5.452,20.686c3.667,3.666,9.32,4.226,13.592,1.678
		l7.634,7.424c1.053,1.02,2.709,0.98,3.713-0.085c1.004-1.066,0.978-2.744-0.074-3.765l-7.519-7.287
		c2.636-4.284,2.101-10.003-1.603-13.708C16.868,0.616,9.79,0.616,5.462,4.943L5.462,4.943z M8.636,8.117
		c2.61-2.61,6.774-2.61,9.385,0c2.608,2.61,2.608,6.775,0,9.385c-2.611,2.609-6.775,2.609-9.385,0
		C6.026,14.892,6.026,10.727,8.636,8.117z"/>
</g>
</svg>
